<?xml version="1.0" encoding="UTF-8"?>
<svg xmlns="http://www.w3.org/2000/svg" xmlns:xlink="http://www.w3.org/1999/xlink"
     viewBox="0 0 1280 720"
     width="1280" height="720">
  <defs>
    <linearGradient id="bg-grad" x1="0%" y1="0%" x2="100%" y2="100%">
      <stop offset="0%" stop-color="#0a0e27"/>
      <stop offset="100%" stop-color="#1a1f3a"/>
    </linearGradient>
    <linearGradient id="accent-grad" x1="0%" y1="0%" x2="100%" y2="0%">
      <stop offset="0%" stop-color="#7c5cff"/>
      <stop offset="100%" stop-color="#00d4ff"/>
    </linearGradient>
    <linearGradient id="accent-grad-v" x1="0%" y1="0%" x2="0%" y2="100%">
      <stop offset="0%" stop-color="#7c5cff"/>
      <stop offset="100%" stop-color="#00d4ff"/>
    </linearGradient>
    <radialGradient id="spot-1" cx="50%" cy="50%" r="50%">
      <stop offset="0%" stop-color="#7c5cff" stop-opacity="0.4"/>
      <stop offset="100%" stop-color="#7c5cff" stop-opacity="0"/>
    </radialGradient>
    <radialGradient id="spot-2" cx="50%" cy="50%" r="50%">
      <stop offset="0%" stop-color="#00d4ff" stop-opacity="0.3"/>
      <stop offset="100%" stop-color="#00d4ff" stop-opacity="0"/>
    </radialGradient>
  </defs>

  <style type="text/css">
    text { font-family: &#39;PingFang SC&#39;, &#39;Microsoft YaHei&#39;, &#39;SF Pro Display&#39;, &#39;Inter&#39;, sans-serif; }
    .mono { font-family: &#39;SF Mono&#39;, &#39;JetBrains Mono&#39;, Menlo, monospace; }
    .eyebrow { font-size: 16px; fill: #00d4ff; letter-spacing: 3px; font-weight: 600; }
    .h1 { font-size: 60px; fill: #ffffff; font-weight: 700; }
    .h2 { font-size: 44px; fill: #ffffff; font-weight: 700; }
    .h3 { font-size: 30px; fill: #ffffff; font-weight: 600; }
    .h4 { font-size: 22px; fill: #ffffff; font-weight: 600; }
    .body { font-size: 18px; fill: #bcc4d8; }
    .small { font-size: 14px; fill: #6b7392; }
    .stat-huge { font-size: 110px; fill: #ffffff; font-weight: 800; }
    .stat-unit { font-size: 28px; fill: #bcc4d8; font-weight: 500; }
  </style>

  <!-- 背景渐变 -->
  <rect width="1280" height="720" fill="url(#bg-grad)"/>

  <!-- 装饰光斑（不影响内容可读性） -->
  <ellipse cx="1180" cy="80" rx="280" ry="220" fill="url(#spot-1)"/>
  <ellipse cx="120" cy="640" rx="280" ry="200" fill="url(#spot-2)"/>

  <!-- layout 渲染区 -->
  <g transform="translate(308, 56)">
  <rect x="0" y="0" width="664" height="578"
        rx="20"
        fill="#ffffff" fill-opacity="0.06"
        stroke="#ffffff" stroke-opacity="0.12"
        stroke-width="1"/>
  <svg x="40" y="40"
       width="584" height="498"
       viewBox="0 0 584 498">
    <rect x="0" y="0" width="6" height="388" rx="3" fill="url(#accent-grad-v)"/>

<text x="32" y="181" font-size="44" fill="#ffffff" font-weight="500" font-style="italic">AI 应用的瓶颈不是模型，</text><text x="32" y="236" font-size="44" fill="#ffffff" font-weight="500" font-style="italic">而是工程化。</text><rect x="32" y="408" width="48" height="3" fill="url(#accent-grad)" rx="2"/>
<text x="32" y="448" class="h4">Dify 创始团队</text><text x="32" y="476" class="body" fill="#6b7392">2024 年技术分享会</text>
  </svg>
</g><g transform="translate(56, 56)">
  <rect x="0" y="0" width="232" height="280"
        rx="20"
        fill="#ffffff" fill-opacity="0.06"
        stroke="#ffffff" stroke-opacity="0.12"
        stroke-width="1"/>
  <svg x="40" y="40"
       width="152" height="200"
       viewBox="0 0 152 200">
    <text x="0" y="20" class="eyebrow">模型延迟</text><text x="0" y="112" font-size="64" fill="#ffffff" font-weight="800">&lt;200</text><text x="0" y="133" font-size="17" fill="#bcc4d8" font-weight="500">ms</text><rect x="0" y="157" width="60" height="3" fill="url(#accent-grad)" rx="2"/>
  </svg>
</g><g transform="translate(56, 354)">
  <rect x="0" y="0" width="232" height="280"
        rx="20"
        fill="#ffffff" fill-opacity="0.06"
        stroke="#ffffff" stroke-opacity="0.12"
        stroke-width="1"/>
  <svg x="40" y="40"
       width="152" height="200"
       viewBox="0 0 152 200">
    <text x="0" y="20" class="eyebrow">成本下降</text><text x="0" y="112" font-size="64" fill="#ffffff" font-weight="800">60</text><text x="78" y="112" font-size="17" fill="#bcc4d8" font-weight="500">%</text><rect x="0" y="136" width="60" height="3" fill="url(#accent-grad)" rx="2"/>
  </svg>
</g><g transform="translate(992, 56)">
  <rect x="0" y="0" width="232" height="280"
        rx="20"
        fill="#ffffff" fill-opacity="0.06"
        stroke="#ffffff" stroke-opacity="0.12"
        stroke-width="1"/>
  <svg x="40" y="40"
       width="152" height="200"
       viewBox="0 0 152 200">
    <text x="0" y="20" class="eyebrow">上线周期</text><text x="0" y="112" font-size="64" fill="#ffffff" font-weight="800">1/10</text><rect x="0" y="136" width="60" height="3" fill="url(#accent-grad)" rx="2"/><text x="0" y="168" class="small">对比传统开发</text>
  </svg>
</g><g transform="translate(992, 354)">
  <rect x="0" y="0" width="232" height="280"
        rx="20"
        fill="#ffffff" fill-opacity="0.06"
        stroke="#ffffff" stroke-opacity="0.12"
        stroke-width="1"/>
  <svg x="40" y="40"
       width="152" height="200"
       viewBox="0 0 152 200">
    <text x="0" y="20" class="eyebrow">客户留存</text><text x="0" y="112" font-size="64" fill="#ffffff" font-weight="800">94</text><text x="78" y="112" font-size="17" fill="#bcc4d8" font-weight="500">%</text><rect x="0" y="136" width="60" height="3" fill="url(#accent-grad)" rx="2"/>
  </svg>
</g>

  <!-- 页脚 -->
  <text x="56" y="702" class="small">Dify 企业介绍</text>
  <text x="1224" y="702" class="small mono" text-anchor="end">05 / 08</text>
</svg>