<?xml version="1.0" encoding="UTF-8"?>
<svg xmlns="http://www.w3.org/2000/svg" xmlns:xlink="http://www.w3.org/1999/xlink"
     viewBox="0 0 1280 720"
     width="1280" height="720">
  <defs>
    <linearGradient id="bg-grad" x1="0%" y1="0%" x2="100%" y2="100%">
      <stop offset="0%" stop-color="#0a0e27"/>
      <stop offset="100%" stop-color="#1a1f3a"/>
    </linearGradient>
    <linearGradient id="accent-grad" x1="0%" y1="0%" x2="100%" y2="0%">
      <stop offset="0%" stop-color="#7c5cff"/>
      <stop offset="100%" stop-color="#00d4ff"/>
    </linearGradient>
    <linearGradient id="accent-grad-v" x1="0%" y1="0%" x2="0%" y2="100%">
      <stop offset="0%" stop-color="#7c5cff"/>
      <stop offset="100%" stop-color="#00d4ff"/>
    </linearGradient><radialGradient id="spot-1" cx="50%" cy="50%" r="50%">
      <stop offset="0%" stop-color="#7c5cff" stop-opacity="0.4"/>
      <stop offset="100%" stop-color="#7c5cff" stop-opacity="0"/>
    </radialGradient>
    <radialGradient id="spot-2" cx="50%" cy="50%" r="50%">
      <stop offset="0%" stop-color="#00d4ff" stop-opacity="0.3"/>
      <stop offset="100%" stop-color="#00d4ff" stop-opacity="0"/>
    </radialGradient>    <pattern id="bg-texture" width="48" height="48" patternUnits="userSpaceOnUse">
      <path d="M 48 0 L 0 0 0 48" fill="none" stroke="#ffffff" stroke-opacity="0.08" stroke-width="0.5"/>
    </pattern>  </defs>

  <style type="text/css">
    text { font-family: &#39;PingFang SC&#39;, &#39;Microsoft YaHei&#39;, &#39;SF Pro Display&#39;, &#39;Inter&#39;, sans-serif; }
    .mono { font-family: &#39;SF Mono&#39;, &#39;JetBrains Mono&#39;, Menlo, monospace; }
    .eyebrow { font-size: 16px; fill: #00d4ff; letter-spacing: 3px; font-weight: 600; }
    .h1 { font-size: 60px; fill: #ffffff; font-weight: 700; }
    .h2 { font-size: 44px; fill: #ffffff; font-weight: 700; }
    .h3 { font-size: 30px; fill: #ffffff; font-weight: 600; }
    .h4 { font-size: 22px; fill: #ffffff; font-weight: 600; }
    .body { font-size: 18px; fill: #bcc4d8; }
    .small { font-size: 14px; fill: #6b7392; }
    .stat-huge { font-size: 110px; fill: #ffffff; font-weight: 800; }
    .stat-unit { font-size: 28px; fill: #bcc4d8; font-weight: 500; }
  </style>

  <!-- 背景渐变 -->
  <rect width="1280" height="720" fill="url(#bg-grad)"/>  <!-- 纹理层（在渐变之上、装饰光斑之下）-->
  <rect width="1280" height="720" fill="url(#bg-texture)"/>
  <!-- 装饰光斑（不影响内容可读性） -->
  <ellipse cx="1180" cy="80" rx="280" ry="220" fill="url(#spot-1)"/>
  <ellipse cx="120" cy="640" rx="280" ry="200" fill="url(#spot-2)"/>
  <!-- layout 渲染区 -->
  <g transform="translate(56, 56)">
  <rect x="0" y="0" width="776" height="280"
        rx="20"
        fill="#ffffff" fill-opacity="0.06"
        stroke="#ffffff" stroke-opacity="0.12"
        stroke-width="1"/>
  <svg x="40" y="40"
       width="696" height="200"
       viewBox="0 0 696 200">
    <text x="0" y="22" class="eyebrow">模型调用量月环比</text><g transform="translate(0, 56)">
  <text x="0" y="17.0" class="body" font-weight="500">GPT-4</text>
  <rect x="180" y="0" width="352" height="22" rx="6"
        fill="#ffffff" fill-opacity="0.06"/>
  <rect x="180" y="0" width="352" height="22" rx="6" fill="url(#accent-grad)"/>
  <text x="544" y="17.0" class="h4" fill="#ffffff">42 <tspan font-size="14" fill="#6b7392">亿</tspan></text>
</g><g transform="translate(0, 96)">
  <text x="0" y="17.0" class="body" font-weight="500">Claude</text>
  <rect x="180" y="0" width="352" height="22" rx="6"
        fill="#ffffff" fill-opacity="0.06"/>
  <rect x="180" y="0" width="259" height="22" rx="6" fill="url(#accent-grad)"/>
  <text x="451" y="17.0" class="h4" fill="#ffffff">31 <tspan font-size="14" fill="#6b7392">亿</tspan></text>
</g><g transform="translate(0, 136)">
  <text x="0" y="17.0" class="body" font-weight="500">Gemini</text>
  <rect x="180" y="0" width="352" height="22" rx="6"
        fill="#ffffff" fill-opacity="0.06"/>
  <rect x="180" y="0" width="150" height="22" rx="6" fill="url(#accent-grad)"/>
  <text x="342" y="17.0" class="h4" fill="#ffffff">18 <tspan font-size="14" fill="#6b7392">亿</tspan></text>
</g>
  </svg>
</g><g transform="translate(852, 56)">
  <rect x="0" y="0" width="372" height="280"
        rx="20"
        fill="#ffffff" fill-opacity="0.06"
        stroke="#ffffff" stroke-opacity="0.12"
        stroke-width="1"/>
  <svg x="40" y="40"
       width="292" height="200"
       viewBox="0 0 292 200">
    <text x="0" y="20" class="eyebrow">运行指标</text>
<text x="0" y="85" font-size="48" fill="#ffffff" font-weight="800">187</text><text x="86" y="85" font-size="14" fill="#00d4ff" font-weight="600">ms</text><text x="114" y="81" font-size="18" fill="#bcc4d8">API 平均响应</text><text x="0" y="101" font-size="12" fill="#6b7392" letter-spacing="1">99 分位</text>
<text x="0" y="119" font-size="18" fill="#ffffff" font-weight="700">420 ms</text><text x="146" y="101" font-size="12" fill="#6b7392" letter-spacing="1">错误率</text>
<text x="146" y="119" font-size="18" fill="#ffffff" font-weight="700">0.03%</text><rect x="0" y="140" width="292" height="6" rx="3" fill="#ffffff" fill-opacity="0.10"/>
<rect x="0" y="140" width="289" height="6" rx="3" fill="url(#accent-grad)"/><text x="0" y="168" font-size="14" fill="#bcc4d8">SLA 99% 达标</text>
  </svg>
</g><g transform="translate(56, 356)">
  <rect x="0" y="0" width="372" height="278"
        rx="20"
        fill="#ffffff" fill-opacity="0.06"
        stroke="#ffffff" stroke-opacity="0.12"
        stroke-width="1"/>
  <svg x="40" y="40"
       width="292" height="198"
       viewBox="0 0 292 198">
    <text x="0" y="20" class="eyebrow">界面预览</text><image href="/private/tmp/ppt-test/2026-04-25-Dify-企业介绍/assets/b0f2e749292c.png" x="0" y="40" width="292" height="138" preserveAspectRatio="xMidYMid slice"/>
  </svg>
</g><g transform="translate(452, 356)">
  <rect x="0" y="0" width="772" height="278"
        rx="20"
        fill="#ffffff" fill-opacity="0.06"
        stroke="#ffffff" stroke-opacity="0.12"
        stroke-width="1"/>
  <svg x="40" y="40"
       width="692" height="198"
       viewBox="0 0 692 198">
    <text x="0" y="38" class="h3">落地案例</text><text x="0" y="82" font-size="18" fill="#bcc4d8">某头部券商：用 Dify 把 17 个内部系统的接口能力封装成 Agent 工具，把客户经理</text><text x="0" y="110" font-size="18" fill="#bcc4d8">日均处理工单数从 23 提升到 78。</text><text x="0" y="148" font-size="18" fill="#bcc4d8">某省级政务平台：基于 Dify 知识库构建公文助手，问答准确率从 62% 提升到 91%。</text>
  </svg>
</g>

  <!-- 页脚 -->
  <text x="56" y="702" class="small">Dify 企业介绍</text>
  <text x="1224" y="702" class="small mono" text-anchor="end">07 / 08</text>
</svg>